<svg width="24" height="24" viewBox="0 0 24 24" fill="none" xmlns="http://www.w3.org/2000/svg">
<path d="M7.86842 20.3985C4.9699 18.8366 3 15.7733 3 12.25C3 7.14137 7.14137 3 12.25 3C17.3586 3 21.5 7.14137 21.5 12.25C21.5 15.3628 19.9624 18.1165 17.6053 19.793C17.2944 20.0141 16.9693 20.2165 16.6316 20.3985" stroke="#DA2828" stroke-width="1.5" stroke-linecap="round"/>
<path d="M8.25 7.25C8.25 6.97386 8.02614 6.75 7.75 6.75C7.47386 6.75 7.25 6.97386 7.25 7.25V12.25C7.25 13.6479 8.20608 14.8225 9.5 15.1555V20.75C9.5 21.1642 9.83579 21.5 10.25 21.5C10.6642 21.5 11 21.1642 11 20.75V15.1555C12.2939 14.8225 13.25 13.6479 13.25 12.25V7.25C13.25 6.97386 13.0261 6.75 12.75 6.75C12.4739 6.75 12.25 6.97386 12.25 7.25V11.25H10.75V7.25C10.75 6.97386 10.5261 6.75 10.25 6.75C9.97386 6.75 9.75 6.97386 9.75 7.25V11.25H8.25L8.25 7.25Z" fill="#DA2828"/>
<path d="M16.5 14.75C17.1185 13.9254 15 7.47107 15 7.47107V16.25C15 16.25 15.75 15.75 16.5 14.75Z" fill="#DA2828"/>
<path d="M15 7.49999V20.75M15 7.47107C15 7.47107 17.1185 13.9254 16.5 14.75C15.75 15.75 15 16.25 15 16.25V7.47107Z" stroke="#DA2828" stroke-width="1.5" stroke-linecap="round" stroke-linejoin="round"/>
</svg>
